<svg width="26" height="24" viewBox="0 0 26 24" fill="none" xmlns="http://www.w3.org/2000/svg">
<path d="M4.1944 12H21.8057" stroke="#48494D" stroke-width="1.5"/>
<path d="M4.1944 12H21.8057" stroke="#48494D" stroke-width="1.5" stroke-miterlimit="10" stroke-linecap="round" stroke-linejoin="round"/>
<path d="M13 6.52966V17.4707" stroke="#48494D" stroke-width="1.5"/>
<path d="M13 6.52966V17.4707" stroke="#48494D" stroke-width="1.5" stroke-miterlimit="10" stroke-linecap="round" stroke-linejoin="round"/>
<path d="M21.8059 6.52966V12.0003" stroke="#48494D" stroke-width="1.5"/>
<path d="M21.8059 6.52966V12.0003" stroke="#48494D" stroke-width="1.5" stroke-miterlimit="10" stroke-linecap="round" stroke-linejoin="round"/>
<path d="M4.1944 6.52966V17.4713" stroke="#48494D" stroke-width="1.5"/>
<path d="M4.1944 6.52966V17.4713" stroke="#48494D" stroke-width="1.5" stroke-miterlimit="10" stroke-linecap="round" stroke-linejoin="round"/>
<path d="M4.19432 6.5295C5.67787 6.5295 6.88052 5.32685 6.88052 3.8433C6.88052 2.35976 5.67787 1.1571 4.19432 1.1571C2.71077 1.1571 1.50812 2.35976 1.50812 3.8433C1.50812 5.32685 2.71077 6.5295 4.19432 6.5295Z" stroke="#48494D" stroke-width="1.5" stroke-miterlimit="10" stroke-linecap="round" stroke-linejoin="round"/>
<path d="M12.9999 6.5295C14.4835 6.5295 15.6861 5.32685 15.6861 3.8433C15.6861 2.35976 14.4835 1.1571 12.9999 1.1571C11.5164 1.1571 10.3137 2.35976 10.3137 3.8433C10.3137 5.32685 11.5164 6.5295 12.9999 6.5295Z" stroke="#48494D" stroke-width="1.5" stroke-miterlimit="10" stroke-linecap="round" stroke-linejoin="round"/>
<path d="M21.8061 6.5295C23.2896 6.5295 24.4923 5.32685 24.4923 3.8433C24.4923 2.35976 23.2896 1.1571 21.8061 1.1571C20.3225 1.1571 19.1199 2.35976 19.1199 3.8433C19.1199 5.32685 20.3225 6.5295 21.8061 6.5295Z" stroke="#48494D" stroke-width="1.5" stroke-miterlimit="10" stroke-linecap="round" stroke-linejoin="round"/>
<path d="M4.19432 22.8429C5.67787 22.8429 6.88052 21.6402 6.88052 20.1567C6.88052 18.6731 5.67787 17.4705 4.19432 17.4705C2.71077 17.4705 1.50812 18.6731 1.50812 20.1567C1.50812 21.6402 2.71077 22.8429 4.19432 22.8429Z" stroke="#48494D" stroke-width="1.5" stroke-miterlimit="10" stroke-linecap="round" stroke-linejoin="round"/>
<path d="M12.9999 22.8429C14.4835 22.8429 15.6861 21.6402 15.6861 20.1567C15.6861 18.6731 14.4835 17.4705 12.9999 17.4705C11.5164 17.4705 10.3137 18.6731 10.3137 20.1567C10.3137 21.6402 11.5164 22.8429 12.9999 22.8429Z" stroke="#48494D" stroke-width="1.5" stroke-miterlimit="10" stroke-linecap="round" stroke-linejoin="round"/>
</svg>
